<svg width="30" height="49" viewBox="0 0 30 49" fill="none" xmlns="http://www.w3.org/2000/svg">
<path d="M12.728 47C12.728 48.1046 13.6235 49 14.728 49C15.8326 49 16.728 48.1046 16.728 47L14.728 47L12.728 47ZM16.1422 0.585785C15.3612 -0.195263 14.0949 -0.195263 13.3138 0.585785L0.58589 13.3137C-0.195159 14.0948 -0.195159 15.3611 0.58589 16.1421C1.36694 16.9232 2.63327 16.9232 3.41432 16.1421L14.728 4.82843L26.0417 16.1421C26.8228 16.9232 28.0891 16.9232 28.8702 16.1421C29.6512 15.3611 29.6512 14.0948 28.8702 13.3137L16.1422 0.585785ZM14.728 47L16.728 47L16.728 2L14.728 2L12.728 2L12.728 47L14.728 47Z" fill="white"/>
</svg>
