<svg width="302" height="297" viewBox="0 0 302 297" fill="none" xmlns="http://www.w3.org/2000/svg">
<path d="M280.421 8.95746C284.392 5.11918 290.723 5.22686 294.561 9.19794C298.399 13.169 298.292 19.4998 294.321 23.338L21.0899 287.431C17.1188 291.269 10.7881 291.161 6.94981 287.19C3.11154 283.219 3.2192 276.888 7.19028 273.05L280.421 8.95746Z" fill="#0048B0"/>
<path d="M292.772 275.772C296.677 279.677 296.677 286.009 292.772 289.914C288.866 293.819 282.535 293.819 278.63 289.914L9.92893 21.2132C6.02368 17.308 6.02369 10.9763 9.92893 7.07107C13.8342 3.16582 20.1658 3.16583 24.0711 7.07107L292.772 275.772Z" fill="#0048B0"/>
</svg>
