<svg width="12" height="15" viewBox="0 0 12 15" fill="none" xmlns="http://www.w3.org/2000/svg">
<path d="M5.49314 13.8122L5.77413 14.0624L6.05512 13.8122C6.27938 13.6123 11.5482 8.88353 11.5482 5.77413C11.5482 2.59025 8.958 0 5.77413 0C2.59025 0 0 2.59025 0 5.77413C0 8.88353 5.26882 13.6124 5.49314 13.8122ZM5.77413 0.844994C8.49206 0.844994 10.7033 3.05618 10.7033 5.77413C10.7033 7.90706 7.37527 11.4388 5.77413 12.9252C4.17298 11.4387 0.844997 7.90706 0.844997 5.77413C0.844997 3.05618 3.05617 0.844994 5.77413 0.844994ZM8.77087 5.62276C8.77087 3.97034 7.42654 2.62607 5.77413 2.62607C4.12172 2.62607 2.77738 3.97028 2.77738 5.62276C2.77738 7.27523 4.12172 8.61955 5.77413 8.61955C7.42654 8.61955 8.77087 7.27517 8.77087 5.62276ZM3.62238 5.62276C3.62238 4.43628 4.58765 3.47107 5.77413 3.47107C6.96061 3.47107 7.92591 4.43633 7.92591 5.62276C7.92591 6.8093 6.96061 7.77457 5.77413 7.77457C4.58765 7.77457 3.62238 6.80924 3.62238 5.62276Z" fill="white"/>
</svg>
